999
"DXF R12 Output" (www.mydxf.blogspot.com)
 0 
SECTION
 2 
HEADER
 9 
$ACADVER
 1 
AC1009
 9 
$EXTMIN
 10 
 0 
 20 
 0 
 9 
$EXTMAX
 10 
 8.5 
 20 
 11 
 0 
ENDSEC
 0 
SECTION
 2 
ENTITIES
0
LINE
8
Calque 1
10
-226.687300
20
-126.372390
11
-9.311974
21
-126.372390
0
LINE
8
Calque 1
10
-9.311974
20
-126.372390
11
-8.761584
21
-294.300540
0
LINE
8
Calque 1
10
-8.761584
20
-294.300540
11
-226.687300
21
-294.050800
0
LINE
8
Calque 1
10
-226.687300
20
-294.050800
11
-226.687300
21
-126.372390
0
LINE
8
Calque 1
10
-223.893950
20
-301.288580
11
-102.890390
21
-301.645830
0
LINE
8
Calque 1
10
-102.890390
20
-301.645830
11
-55.784858
21
-419.758630
0
LINE
8
Calque 1
10
-55.784858
20
-419.758630
11
-223.893950
21
-419.582430
0
LINE
8
Calque 1
10
-223.893950
20
-419.582430
11
-223.893950
21
-301.288580
0
LINE
8
Calque 1
10
-249.828180
20
-576.086310
11
-32.121975
21
-576.086310
0
LINE
8
Calque 1
10
-32.121975
20
-576.086310
11
-31.570755
21
-694.346640
0
LINE
8
Calque 1
10
-31.570755
20
-694.346640
11
-249.828180
21
-694.170780
0
LINE
8
Calque 1
10
-249.828180
20
-694.170780
11
-249.828180
21
-576.086310
0
LINE
8
Calque 1
10
120.432280
20
-78.898800
11
120.740010
21
-296.595630
0
LINE
8
Calque 1
10
120.740010
20
-296.595630
11
1.225127
21
-297.312220
0
LINE
8
Calque 1
10
1.225127
20
-297.312220
11
1.094342
21
-79.063950
0
LINE
8
Calque 1
10
1.094342
20
-79.063950
11
120.432280
21
-78.898800
0
LINE
8
Calque 1
10
-218.628310
20
-434.741870
11
-97.624726
21
-435.099120
0
LINE
8
Calque 1
10
-97.624726
20
-435.099120
11
-50.519196
21
-553.211930
0
LINE
8
Calque 1
10
-50.519196
20
-553.211930
11
-218.628310
21
-553.035730
0
LINE
8
Calque 1
10
-218.628310
20
-553.035730
11
-218.628310
21
-434.741870
0
LINE
8
Calque 1
10
13.410761
20
-105.827580
11
80.415331
21
-105.827580
0
LINE
8
Calque 1
10
80.415331
20
-105.827580
11
80.415331
21
-172.832150
0
LINE
8
Calque 1
10
80.415331
20
-172.832150
11
13.410761
21
-172.832150
0
LINE
8
Calque 1
10
13.410761
20
-172.832150
11
13.410761
21
-105.827580
0
LINE
8
Calque 1
10
13.367713
20
-199.513340
11
80.372283
21
-199.513340
0
LINE
8
Calque 1
10
80.372283
20
-199.513340
11
80.372283
21
-266.517910
0
LINE
8
Calque 1
10
80.372283
20
-266.517910
11
13.367713
21
-266.517910
0
LINE
8
Calque 1
10
13.367713
20
-266.517910
11
13.367713
21
-199.513340
0
LINE
8
Calque 1
10
129.130450
20
-82.035830
11
199.130450
21
-82.035830
0
LINE
8
Calque 1
10
199.130450
20
-82.035830
11
199.130450
21
-197.035830
0
LINE
8
Calque 1
10
199.130450
20
-197.035830
11
129.130450
21
-197.035830
0
LINE
8
Calque 1
10
129.130450
20
-197.035830
11
129.130450
21
-82.035830
0
LINE
8
Calque 1
10
128.976530
20
-203.711030
11
198.976530
21
-203.711030
0
LINE
8
Calque 1
10
198.976530
20
-203.711030
11
198.976530
21
-318.711030
0
LINE
8
Calque 1
10
198.976530
20
-318.711030
11
128.976530
21
-318.711030
0
LINE
8
Calque 1
10
128.976530
20
-318.711030
11
128.976530
21
-203.711030
0
LINE
8
Calque 1
10
129.363660
20
-323.599980
11
199.363660
21
-323.599980
0
LINE
8
Calque 1
10
199.363660
20
-323.599980
11
199.363660
21
-438.599980
0
LINE
8
Calque 1
10
199.363660
20
-438.599980
11
129.363660
21
-438.599980
0
LINE
8
Calque 1
10
129.363660
20
-438.599980
11
129.363660
21
-323.599980
0
LINE
8
Calque 1
10
53.877716
20
-301.426450
11
123.877716
21
-301.426450
0
LINE
8
Calque 1
10
123.877716
20
-301.426450
11
123.877716
21
-416.426450
0
LINE
8
Calque 1
10
123.877716
20
-416.426450
11
53.877716
21
-416.426450
0
LINE
8
Calque 1
10
53.877716
20
-416.426450
11
53.877716
21
-301.426450
0
LINE
8
Calque 1
10
-20.062386
20
-302.424620
11
49.937614
21
-302.424620
0
LINE
8
Calque 1
10
49.937614
20
-302.424620
11
49.937614
21
-417.424620
0
LINE
8
Calque 1
10
49.937614
20
-417.424620
11
-20.062386
21
-417.424620
0
LINE
8
Calque 1
10
-20.062386
20
-417.424620
11
-20.062386
21
-302.424620
0
LINE
8
Calque 1
10
-21.013449
20
-421.781070
11
48.986551
21
-421.781070
0
LINE
8
Calque 1
10
48.986551
20
-421.781070
11
48.986551
21
-536.781070
0
LINE
8
Calque 1
10
48.986551
20
-536.781070
11
-21.013449
21
-536.781070
0
LINE
8
Calque 1
10
-21.013449
20
-536.781070
11
-21.013449
21
-421.781070
0
LINE
8
Calque 1
10
53.238266
20
-421.689330
11
123.238266
21
-421.689330
0
LINE
8
Calque 1
10
123.238266
20
-421.689330
11
123.238266
21
-536.689330
0
LINE
8
Calque 1
10
123.238266
20
-536.689330
11
53.238266
21
-536.689330
0
LINE
8
Calque 1
10
53.238266
20
-536.689330
11
53.238266
21
-421.689330
0
LINE
8
Calque 1
10
129.134140
20
-442.249880
11
199.134140
21
-442.249880
0
LINE
8
Calque 1
10
199.134140
20
-442.249880
11
199.134140
21
-557.249880
0
LINE
8
Calque 1
10
199.134140
20
-557.249880
11
129.134140
21
-557.249880
0
LINE
8
Calque 1
10
129.134140
20
-557.249880
11
129.134140
21
-442.249880
0
LINE
8
Calque 1
10
-19.062554
20
-570.023506
11
199.664236
21
-570.136261
0
LINE
8
Calque 1
10
199.664236
20
-570.136261
11
199.592179
21
-697.384521
0
LINE
8
Calque 1
10
199.592179
20
-697.384521
11
-19.134611
21
-697.271766
0
LINE
8
Calque 1
10
-19.134611
20
-697.271766
11
-19.062554
21
-570.023506
0
LINE
8
Calque 1
10
9.619570
20
-632.863830
11
36.183401
21
-632.863830
0
LINE
8
Calque 1
10
36.183401
20
-632.863830
11
36.183401
21
-659.127666
0
LINE
8
Calque 1
10
36.183401
20
-659.127666
11
9.619570
21
-659.127666
0
LINE
8
Calque 1
10
9.619570
20
-659.127666
11
9.619570
21
-632.863830
0
LINE
8
Calque 1
10
18.932343
20
-625.055360
11
26.874426
21
-625.055360
0
LINE
8
Calque 1
10
26.874426
20
-625.055360
11
26.874426
21
-628.797443
0
LINE
8
Calque 1
10
26.874426
20
-628.797443
11
18.932343
21
-628.797443
0
LINE
8
Calque 1
10
18.932343
20
-628.797443
11
18.932343
21
-625.055360
0
LINE
8
Calque 1
10
155.225310
20
-629.247010
11
153.465974
21
-629.510457
0
LINE
8
Calque 1
10
153.465974
20
-629.510457
11
151.891889
21
-630.258192
0
LINE
8
Calque 1
10
151.891889
20
-630.258192
11
150.598694
21
-631.426312
0
LINE
8
Calque 1
10
150.598694
20
-631.426312
11
149.682033
21
-632.950909
0
LINE
8
Calque 1
10
149.682033
20
-632.950909
11
149.252157
21
-634.677140
0
LINE
8
Calque 1
10
149.252157
20
-634.677140
11
149.340598
21
-636.417552
0
LINE
8
Calque 1
10
149.340598
20
-636.417552
11
149.924916
21
-638.059328
0
LINE
8
Calque 1
10
149.924916
20
-638.059328
11
150.982669
21
-639.489651
0
LINE
8
Calque 1
10
150.982669
20
-639.489651
11
152.412992
21
-640.547404
0
LINE
8
Calque 1
10
152.412992
20
-640.547404
11
154.054768
21
-641.131722
0
LINE
8
Calque 1
10
154.054768
20
-641.131722
11
155.795180
21
-641.220163
0
LINE
8
Calque 1
10
155.795180
20
-641.220163
11
157.521411
21
-640.790287
0
LINE
8
Calque 1
10
157.521411
20
-640.790287
11
159.046008
21
-639.873626
0
LINE
8
Calque 1
10
159.046008
20
-639.873626
11
160.214128
21
-638.580431
0
LINE
8
Calque 1
10
160.214128
20
-638.580431
11
160.961863
21
-637.006346
0
LINE
8
Calque 1
10
160.961863
20
-637.006346
11
161.225310
21
-635.247010
0
LINE
8
Calque 1
10
161.225310
20
-635.247010
11
161.108956
21
-634.071002
0
LINE
8
Calque 1
10
161.108956
20
-634.071002
11
160.768587
21
-632.950909
0
LINE
8
Calque 1
10
160.768587
20
-632.950909
11
160.217240
21
-631.918207
0
LINE
8
Calque 1
10
160.217240
20
-631.918207
11
159.467951
21
-631.004369
0
LINE
8
Calque 1
10
159.467951
20
-631.004369
11
158.554113
21
-630.255080
0
LINE
8
Calque 1
10
158.554113
20
-630.255080
11
157.521411
21
-629.703733
0
LINE
8
Calque 1
10
157.521411
20
-629.703733
11
156.401318
21
-629.363364
0
LINE
8
Calque 1
10
156.401318
20
-629.363364
11
155.225310
21
-629.247010
0
LINE
8
Calque 1
10
155.225310
20
-629.247010
11
155.225310
21
-629.247010
0
LINE
8
Calque 1
10
73.405281
20
-628.209900
11
71.499334
21
-628.495300
0
LINE
8
Calque 1
10
71.499334
20
-628.495300
11
69.794074
21
-629.305348
0
LINE
8
Calque 1
10
69.794074
20
-629.305348
11
68.393114
21
-630.570810
0
LINE
8
Calque 1
10
68.393114
20
-630.570810
11
67.400064
21
-632.222458
0
LINE
8
Calque 1
10
67.400064
20
-632.222458
11
66.934365
21
-634.092541
0
LINE
8
Calque 1
10
66.934365
20
-634.092541
11
67.030177
21
-635.977987
0
LINE
8
Calque 1
10
67.030177
20
-635.977987
11
67.663187
21
-637.756578
0
LINE
8
Calque 1
10
67.663187
20
-637.756578
11
68.809087
21
-639.306094
0
LINE
8
Calque 1
10
68.809087
20
-639.306094
11
70.358603
21
-640.451994
0
LINE
8
Calque 1
10
70.358603
20
-640.451994
11
72.137194
21
-641.085004
0
LINE
8
Calque 1
10
72.137194
20
-641.085004
11
74.022640
21
-641.180816
0
LINE
8
Calque 1
10
74.022640
20
-641.180816
11
75.892723
21
-640.715117
0
LINE
8
Calque 1
10
75.892723
20
-640.715117
11
77.544371
21
-639.722067
0
LINE
8
Calque 1
10
77.544371
20
-639.722067
11
78.809833
21
-638.321107
0
LINE
8
Calque 1
10
78.809833
20
-638.321107
11
79.619881
21
-636.615847
0
LINE
8
Calque 1
10
79.619881
20
-636.615847
11
79.905281
21
-634.709900
0
LINE
8
Calque 1
10
79.905281
20
-634.709900
11
79.779231
21
-633.435891
0
LINE
8
Calque 1
10
79.779231
20
-633.435891
11
79.410498
21
-632.222458
0
LINE
8
Calque 1
10
79.410498
20
-632.222458
11
78.813205
21
-631.103697
0
LINE
8
Calque 1
10
78.813205
20
-631.103697
11
78.001475
21
-630.113706
0
LINE
8
Calque 1
10
78.001475
20
-630.113706
11
77.011484
21
-629.301976
0
LINE
8
Calque 1
10
77.011484
20
-629.301976
11
75.892723
21
-628.704683
0
LINE
8
Calque 1
10
75.892723
20
-628.704683
11
74.679290
21
-628.335950
0
LINE
8
Calque 1
10
74.679290
20
-628.335950
11
73.405281
21
-628.209900
0
LINE
8
Calque 1
10
73.405281
20
-628.209900
11
73.405281
21
-628.209900
0
LINE
8
Calque 1
10
73.455284
20
-639.100496
11
72.680609
21
-639.216498
0
LINE
8
Calque 1
10
72.680609
20
-639.216498
11
71.987503
21
-639.545742
0
LINE
8
Calque 1
10
71.987503
20
-639.545742
11
71.418081
21
-640.060091
0
LINE
8
Calque 1
10
71.418081
20
-640.060091
11
71.014454
21
-640.731406
0
LINE
8
Calque 1
10
71.014454
20
-640.731406
11
70.825170
21
-641.491504
0
LINE
8
Calque 1
10
70.825170
20
-641.491504
11
70.864112
21
-642.257846
0
LINE
8
Calque 1
10
70.864112
20
-642.257846
11
71.121401
21
-642.980756
0
LINE
8
Calque 1
10
71.121401
20
-642.980756
11
71.587153
21
-643.610559
0
LINE
8
Calque 1
10
71.587153
20
-643.610559
11
72.216957
21
-644.076312
0
LINE
8
Calque 1
10
72.216957
20
-644.076312
11
72.939868
21
-644.333600
0
LINE
8
Calque 1
10
72.939868
20
-644.333600
11
73.706211
21
-644.372542
0
LINE
8
Calque 1
10
73.706211
20
-644.372542
11
74.466309
21
-644.183258
0
LINE
8
Calque 1
10
74.466309
20
-644.183258
11
75.137624
21
-643.779632
0
LINE
8
Calque 1
10
75.137624
20
-643.779632
11
75.651973
21
-643.210210
0
LINE
8
Calque 1
10
75.651973
20
-643.210210
11
75.981218
21
-642.517105
0
LINE
8
Calque 1
10
75.981218
20
-642.517105
11
76.097220
21
-641.742430
0
LINE
8
Calque 1
10
76.097220
20
-641.742430
11
75.896114
21
-640.731406
0
LINE
8
Calque 1
10
75.896114
20
-640.731406
11
75.323415
21
-639.874301
0
LINE
8
Calque 1
10
75.323415
20
-639.874301
11
74.466309
21
-639.301602
0
LINE
8
Calque 1
10
74.466309
20
-639.301602
11
73.455284
21
-639.100496
0
LINE
8
Calque 1
10
73.455284
20
-639.100496
11
73.455284
21
-639.100496
0
LINE
8
Calque 1
10
-275.388760
20
-471.671330
11
-234.310696
21
-471.671330
0
LINE
8
Calque 1
10
-234.310696
20
-471.671330
11
-234.310696
21
-555.673085
0
LINE
8
Calque 1
10
-234.310696
20
-555.673085
11
-275.388760
21
-555.673085
0
LINE
8
Calque 1
10
-275.388760
20
-555.673085
11
-275.388760
21
-471.671330
0
LINE
8
Calque 1
10
-276.325930
20
-359.339900
11
-235.247866
21
-359.339900
0
LINE
8
Calque 1
10
-235.247866
20
-359.339900
11
-235.247866
21
-443.341655
0
LINE
8
Calque 1
10
-235.247866
20
-443.341655
11
-276.325930
21
-443.341655
0
LINE
8
Calque 1
10
-276.325930
20
-443.341655
11
-276.325930
21
-359.339900
 0 
ENDSEC
 0 
EOF